<svg width="24" height="24" viewBox="0 0 24 24" fill="none" xmlns="http://www.w3.org/2000/svg">
<g clip-path="url(#clip0_17_1697)">
<rect width="24" height="24" rx="4" fill="#F2ECFF"/>
<path d="M8.2962 23.1311C6.04861 24.4288 3.97043 25.2784 2.06166 25.6798C0.18208 26.0645 -1.51906 26.1515 -3.04175 25.9409C-4.53526 25.7134 -5.85814 25.3096 -7.0104 24.7294C-8.16266 24.1493 -9.12068 23.5348 -9.88444 22.886C-10.6482 22.2372 -11.2256 21.6754 -11.6165 21.2006C-12.0074 20.7257 -12.2028 20.4883 -12.2028 20.4883L-3.70869 15.5842C-3.70869 15.5842 -3.53235 15.7548 -3.17965 16.096C-2.82696 16.4373 -2.30078 16.7757 -1.60112 17.1112C-0.889118 17.4007 -0.0064971 17.5138 1.04675 17.4506C2.09999 17.3873 3.32716 16.9513 4.72825 16.1424C6.45043 15.148 7.46183 14.136 7.76243 13.1062C8.07537 12.0304 8.01275 11.113 7.57459 10.3541C7.17012 9.65356 6.58722 9.25063 5.82587 9.14533C5.07686 8.99398 4.0158 9.17847 2.64268 9.6988L-2.09642 11.5009C-4.14993 12.2583 -6.21081 12.7671 -8.27908 13.0272C-10.3473 13.2872 -12.2861 13.0638 -14.0953 12.357C-15.8753 11.6333 -17.3804 10.206 -18.6106 8.07519C-19.7903 6.03193 -20.3159 3.94185 -20.1875 1.80497C-20.0298 -0.34877 -19.2405 -2.41962 -17.8196 -4.40757C-16.3987 -6.39553 -14.3601 -8.1563 -11.7038 -9.68988C-9.63139 -10.8864 -7.72218 -11.6579 -5.97621 -12.0043C-4.24709 -12.3799 -2.6734 -12.4517 -1.25513 -12.2197C0.146295 -12.0169 1.38326 -11.6608 2.45578 -11.1514C3.52829 -10.6419 4.43801 -10.0774 5.18492 -9.4578C5.91498 -8.8674 6.46705 -8.34937 6.84111 -7.9037C7.19832 -7.48723 7.37692 -7.27899 7.37692 -7.27899L-0.898302 -2.50129C-0.898302 -2.50129 -1.04937 -2.62813 -1.35151 -2.8818C-1.64131 -3.18152 -2.07931 -3.43459 -2.66552 -3.64101C-3.26858 -3.87662 -4.01308 -3.95274 -4.899 -3.86936C-5.77259 -3.83202 -6.79318 -3.47631 -7.96076 -2.8022C-9.06996 -2.1618 -9.86755 -1.48726 -10.3535 -0.778566C-10.8103 -0.0867236 -11.0498 0.576976 -11.0721 1.21253C-11.0652 1.83124 -10.9269 2.37411 -10.6572 2.84114C-10.1685 3.68764 -9.41212 4.0877 -8.38807 4.04133C-7.35168 3.94893 -6.19071 3.66783 -4.90516 3.19806L0.0781416 1.31339C2.05642 0.560424 4.02357 0.125238 5.97959 0.00783241C7.94795 -0.155616 9.77834 0.149783 11.4708 0.924028C13.1463 1.66908 14.5487 3.01946 15.6778 4.97516C16.8406 6.98923 17.3517 9.08774 17.2109 11.2707C17.0701 13.4536 16.2685 15.5705 14.806 17.6213C13.3267 19.643 11.1568 21.4796 8.2962 23.1311Z" fill="#7925FF" fill-opacity="0.5"/>
</g>
<defs>
<clipPath id="clip0_17_1697">
<rect width="24" height="24" rx="4" fill="white"/>
</clipPath>
</defs>
</svg>
